<svg width="880" height="390" viewBox="0 0 880 390" fill="none" xmlns="http://www.w3.org/2000/svg">
<path opacity="0.08" d="M504.433 120.849C497.799 124.942 489.346 125.927 479.074 123.802C478.025 123.554 476.765 123.286 475.293 122.999C473.894 122.668 472.786 122.405 471.97 122.212C471.154 122.019 470.243 121.834 469.238 121.657C468.278 121.553 467.398 121.499 466.599 121.494C464.389 121.463 462.713 121.651 461.57 122.058C460.427 122.465 458.774 123.335 456.611 124.67L447 109.095C452.264 105.846 457.496 104.161 462.697 104.038C464.845 103.808 466.772 103.864 468.476 104.206C470.181 104.548 472.288 105.14 474.798 105.98C477.353 106.893 479.81 107.567 482.169 108.003C486.422 108.764 490.496 107.943 494.39 105.54C496.625 104.161 498.067 102.625 498.714 100.931C499.926 97.8928 499.397 94.5352 497.128 90.8576C495.348 87.9732 493.378 86.1521 491.218 85.3942C488.413 84.2374 485.577 84.6433 482.71 86.6118L473.099 71.0362C481.97 66.8568 490.119 66.5084 497.544 69.991C502.982 72.5102 507.325 76.4017 510.573 81.6657C516.312 90.9677 517.821 99.5449 515.1 107.397C513.253 113.117 509.697 117.601 504.433 120.849ZM425.975 122.217L441.55 112.607L451.094 128.074L435.519 137.685L425.975 122.217Z" fill="#1B9468" fill-opacity="0.95"/>
<g opacity="0.08" clip-path="url(#clip0_190_6076)">
<path d="M276.097 97.8218L146.054 124.896C143.654 125.396 141.55 126.829 140.206 128.88C139.54 129.895 139.081 131.032 138.855 132.224C138.629 133.417 138.64 134.643 138.888 135.831L138.901 135.895L107.434 142.446L116.019 183.681L147.486 177.131L147.499 177.194C148.408 181.557 152.253 184.556 156.541 184.556C157.166 184.556 157.8 184.492 158.435 184.361L191.436 177.49C190.647 174.511 190.247 171.442 190.248 168.361C190.248 148.677 206.262 132.663 225.945 132.663C243.794 132.663 258.623 145.828 261.234 162.959L288.477 157.287L276.097 97.8218Z" fill="#1B9468" fill-opacity="0.95"/>
<path d="M225.945 139.245C209.891 139.245 196.83 152.306 196.83 168.361C196.83 184.416 209.891 197.476 225.945 197.476C241.999 197.476 255.06 184.416 255.06 168.361C255.06 152.306 241.999 139.245 225.945 139.245ZM225.945 178.986C220.086 178.986 215.32 174.22 215.32 168.361C215.32 162.502 220.086 157.735 225.945 157.735C231.804 157.735 236.57 162.502 236.57 168.361C236.57 174.22 231.804 178.986 225.945 178.986ZM340.851 148.316L327.699 85.146C327.452 83.9574 326.973 82.8292 326.29 81.8258C325.606 80.8223 324.732 79.9633 323.716 79.2978C322.701 78.6323 321.565 78.1733 320.372 77.9471C319.179 77.7208 317.953 77.7318 316.765 77.9792L288.408 83.883C286.897 84.1948 285.489 84.8818 284.314 85.8807C281.817 88.0007 280.527 91.3856 281.242 94.8186L294.393 157.989C294.731 159.617 295.503 161.124 296.627 162.35C297.75 163.576 299.184 164.476 300.777 164.955C302.254 165.4 303.818 165.469 305.328 165.156L333.685 159.252C338.683 158.211 341.892 153.315 340.851 148.316ZM108.744 178.719L102.744 149.899C101.92 145.942 98.674 143.117 94.8792 142.623C93.8567 142.488 92.8187 142.524 91.8085 142.733C86.8103 143.774 83.6018 148.669 84.6417 153.668L90.0499 179.645L90.6418 182.488C91.5504 186.851 95.3954 189.85 99.6834 189.85C100.308 189.85 100.942 189.786 101.577 189.655C102.586 189.443 103.553 189.063 104.436 188.531C107.721 186.564 109.568 182.678 108.744 178.719ZM274.183 286.988L245.382 198.29C240.271 201.621 234.264 203.831 227.803 204.164L243.661 253.142H208.229L224.088 204.158C217.627 203.825 211.62 201.685 206.509 198.354L177.708 287.006C176.131 291.862 178.789 297.059 183.646 298.636C188.502 300.212 193.717 297.693 195.293 292.837L202.225 271.631H249.665L256.597 292.828C257.866 296.736 261.49 299.146 265.388 299.146C266.333 299.146 267.297 298.963 268.245 298.655C273.101 297.077 275.759 291.844 274.183 286.988Z" fill="#1B9468" fill-opacity="0.95"/>
</g>
<g filter="url(#filter0_f_190_6076)">
<path d="M442.298 131.825C458.927 131.825 475.182 136.758 489.009 145.999C502.835 155.241 513.612 168.376 519.975 183.744C526.339 199.112 528.004 216.023 524.76 232.337C521.516 248.652 513.508 263.638 501.75 275.4C489.991 287.162 475.01 295.173 458.701 298.418C442.391 301.663 425.486 299.997 410.123 293.632C394.759 287.266 381.628 276.486 372.39 262.655C363.151 248.824 358.22 232.564 358.22 215.929C358.248 193.632 367.115 172.256 382.877 156.49C398.639 140.723 420.008 131.853 442.298 131.825ZM442.298 124.082C424.138 124.082 406.386 129.468 391.286 139.561C376.187 149.653 364.418 163.998 357.468 180.781C350.519 197.564 348.7 216.031 352.243 233.848C355.786 251.665 364.531 268.031 377.372 280.876C390.213 293.721 406.574 302.468 424.385 306.012C442.196 309.556 460.658 307.738 477.435 300.786C494.213 293.834 508.553 282.062 518.642 266.957C528.731 251.853 534.117 234.095 534.117 215.929C534.117 191.57 524.443 168.208 507.223 150.983C490.004 133.758 466.65 124.082 442.298 124.082Z" fill="black" fill-opacity="0.2"/>
</g>
<g filter="url(#filter1_f_190_6076)">
<path d="M445.022 136.827C460.168 136.827 474.975 141.466 487.569 150.158C500.163 158.85 509.979 171.204 515.776 185.659C521.572 200.113 523.089 216.018 520.134 231.362C517.179 246.707 509.885 260.802 499.175 271.864C488.464 282.927 474.818 290.461 459.962 293.513C445.106 296.565 429.708 294.999 415.714 289.012C401.72 283.025 389.759 272.886 381.344 259.877C372.929 246.869 368.438 231.575 368.438 215.93C368.463 194.959 376.54 174.854 390.897 160.025C405.254 145.196 424.718 136.853 445.022 136.827ZM445.022 129.544C428.48 129.544 412.31 134.61 398.556 144.103C384.803 153.595 374.083 167.086 367.753 182.871C361.423 198.656 359.766 216.026 362.994 232.783C366.221 249.54 374.186 264.933 385.883 277.014C397.579 289.095 412.482 297.323 428.705 300.656C444.929 303.989 461.745 302.279 477.027 295.74C492.31 289.202 505.372 278.13 514.562 263.924C523.751 249.717 528.657 233.016 528.657 215.93C528.657 193.019 519.845 171.046 504.16 154.846C488.476 138.645 467.203 129.544 445.022 129.544Z" fill="black" fill-opacity="0.2"/>
</g>
<path d="M356.512 277.044C356.366 273.639 356.512 270.261 354.109 267.585C353.373 266.825 352.419 266.313 351.379 266.119C349.186 265.636 346.519 266.028 344.535 266.028H331.202V168.462C331.202 162.299 331.084 155.935 331.448 149.699C331.675 146.003 332.495 140.368 328.39 138.402C326.088 137.423 323.61 136.927 321.109 136.945C311.098 136.59 282.403 136.945 282.403 136.945C280.448 137.214 278.575 137.906 276.915 138.974C275.255 140.041 273.848 141.459 272.793 143.126C271.336 145.575 269.953 148.07 268.551 150.555C265.597 155.775 262.645 160.994 259.696 166.214C255.801 173.114 251.909 180.021 248.02 186.934L235.279 209.575C231.268 216.7 227.248 223.829 223.22 230.96L213.664 247.948C211.434 251.908 208.777 255.822 207.011 260.001C205.518 263.524 205.191 267.421 205.127 271.208C205.018 276.033 205.027 280.867 205.027 285.692C205.027 288.778 205.027 291.974 206.183 294.887C206.312 295.359 206.606 295.769 207.011 296.043C208.221 296.699 210.897 296.289 212.244 296.316C216.64 296.398 221.045 296.426 225.44 296.444C231.756 296.48 238.072 296.48 244.389 296.444H266.859L290.612 296.371L313.428 296.271L333.077 296.171C337.834 296.171 342.591 296.143 347.347 296.089C349.167 296.089 350.988 296.089 352.808 296.089C353.233 296.124 353.66 296.072 354.064 295.934C355.22 295.461 355.274 293.276 355.529 292.238C355.941 290.565 356.227 288.864 356.385 287.149C356.656 283.787 356.699 280.411 356.512 277.044ZM292.268 266.738H237.19L292.268 172.696V266.738Z" fill="#66C69C"/>
<path d="M685.547 277.044C685.401 273.639 685.547 270.261 683.144 267.585C682.408 266.825 681.454 266.313 680.414 266.119C678.22 265.636 675.554 266.028 673.57 266.028H660.264V168.462C660.264 162.299 660.146 155.935 660.51 149.699C660.738 146.003 661.557 140.368 657.452 138.402C655.15 137.423 652.672 136.927 650.171 136.945C640.16 136.59 611.465 136.945 611.465 136.945C609.51 137.214 607.637 137.906 605.977 138.974C604.317 140.041 602.91 141.459 601.855 143.126C600.398 145.575 599.015 148.07 597.614 150.555C594.659 155.775 591.707 160.994 588.758 166.214C584.863 173.114 580.971 180.021 577.082 186.934L564.341 209.575C560.33 216.7 556.32 223.829 552.309 230.96L542.753 247.948C540.523 251.908 537.866 255.822 536.1 260.001C534.608 263.524 534.28 267.421 534.217 271.208C534.107 276.033 534.116 280.867 534.116 285.692C534.116 288.778 534.116 291.974 535.272 294.887C535.401 295.359 535.695 295.769 536.1 296.043C537.311 296.699 539.987 296.289 541.333 296.316C545.729 296.398 550.134 296.426 554.53 296.444C560.846 296.48 567.162 296.48 573.478 296.444H595.948L619.701 296.371L642.517 296.271L662.166 296.171C666.929 296.171 671.686 296.143 676.437 296.089C678.257 296.089 680.077 296.089 681.897 296.089C682.322 296.124 682.75 296.072 683.153 295.934C684.309 295.461 684.364 293.276 684.618 292.238C685.03 290.565 685.316 288.864 685.474 287.149C685.727 283.786 685.752 280.41 685.547 277.044ZM621.303 266.738H566.252L621.331 172.696L621.303 266.738Z" fill="#1B9468" fill-opacity="0.95"/>
<path d="M509.718 267.114L493.375 282.58L508.26 298.32L524.603 282.854L509.718 267.114Z" fill="#66C69C"/>
<g opacity="0.15">
<path d="M442.359 303.772C490.053 303.772 528.717 265.096 528.717 217.386C528.717 169.676 490.053 131 442.359 131C394.664 131 356 169.676 356 217.386C356 265.096 394.664 303.772 442.359 303.772Z" fill="#26986E"/>
</g>
<g opacity="0.15">
<path d="M442.297 145.967C456.13 145.967 469.653 150.07 481.154 157.758C492.656 165.446 501.62 176.372 506.914 189.156C512.208 201.94 513.593 216.007 510.894 229.579C508.195 243.15 501.534 255.617 491.753 265.401C481.971 275.186 469.509 281.849 455.942 284.548C442.375 287.248 428.312 285.862 415.532 280.567C402.752 275.272 391.829 266.304 384.144 254.799C376.459 243.294 372.357 229.767 372.357 215.93C372.378 197.381 379.754 179.599 392.866 166.483C405.978 153.367 423.755 145.989 442.297 145.967ZM442.297 136.863C426.665 136.865 411.384 141.504 398.387 150.193C385.39 158.882 375.26 171.231 369.279 185.679C363.298 200.126 361.734 216.024 364.785 231.361C367.836 246.697 375.364 260.785 386.419 271.842C397.473 282.898 411.557 290.428 426.89 293.478C442.222 296.528 458.114 294.962 472.556 288.977C486.999 282.992 499.343 272.858 508.028 259.856C516.712 246.854 521.348 231.567 521.348 215.93C521.349 205.546 519.305 195.263 515.333 185.669C511.36 176.075 505.538 167.358 498.197 160.015C490.856 152.673 482.141 146.849 472.549 142.877C462.958 138.904 452.678 136.861 442.297 136.863Z" fill="#26986E"/>
</g>
<path d="M442.297 136.827C457.938 136.827 473.226 141.466 486.231 150.158C499.235 158.85 509.371 171.204 515.356 185.659C521.341 200.113 522.907 216.018 519.856 231.362C516.805 246.707 509.273 260.802 498.214 271.864C487.155 282.927 473.064 290.461 457.725 293.513C442.385 296.565 426.485 294.999 412.036 289.012C397.586 283.025 385.236 272.886 376.547 259.877C367.857 246.869 363.219 231.575 363.219 215.93C363.246 194.959 371.586 174.854 386.41 160.025C401.234 145.196 421.333 136.853 442.297 136.827ZM442.297 129.544C425.217 129.544 408.521 134.61 394.319 144.103C380.118 153.595 369.049 167.086 362.512 182.871C355.976 198.656 354.266 216.026 357.598 232.783C360.93 249.54 369.155 264.933 381.233 277.014C393.31 289.095 408.698 297.323 425.45 300.656C442.202 303.989 459.565 302.279 475.345 295.74C491.125 289.202 504.613 278.13 514.102 263.924C523.591 249.717 528.656 233.016 528.656 215.93C528.656 193.019 519.558 171.046 503.362 154.846C487.167 138.645 465.201 129.544 442.297 129.544Z" fill="#26986E"/>
<path d="M861.996 295.534H0.902588V297.345H861.996V295.534Z" fill="#26986E"/>
<path opacity="0.18" d="M440.048 155.265L421.868 158.233C414.551 159.428 409.588 166.329 410.782 173.649C411.977 180.968 418.876 185.933 426.193 184.738L444.373 181.77C451.69 180.576 456.653 173.674 455.459 166.354C454.265 159.035 447.365 154.07 440.048 155.265Z" fill="white"/>
<path opacity="0.18" d="M449.452 263.113L439.525 263.986C436.11 264.286 433.585 267.298 433.885 270.714C434.185 274.13 437.196 276.656 440.611 276.355L450.538 275.483C453.953 275.183 456.478 272.171 456.178 268.755C455.878 265.339 452.867 262.813 449.452 263.113Z" fill="white"/>
<path d="M601.6 117.509H603.875" stroke="#11B753" stroke-opacity="0.5" stroke-width="0.74593" stroke-miterlimit="10" stroke-dasharray="3.8 3.8"/>
<path d="M88.6899 7.75293V10.0289" stroke="#FE9E4A" stroke-width="0.74593" stroke-miterlimit="10" stroke-dasharray="3.83 3.83"/>
<path d="M88.6899 14.5352V165.485" stroke="#11B753" stroke-opacity="0.5" stroke-width="0.74593" stroke-miterlimit="10" stroke-dasharray="3.83 3.83"/>
<path d="M88.6899 167.744V170.02H90.9652" stroke="#FE9E4A" stroke-width="0.74593" stroke-miterlimit="10" stroke-dasharray="3.83 3.83"/>
<g opacity="0.08" clip-path="url(#clip1_190_6076)">
<path d="M875.16 223.247L868.756 222.605C868.328 220.4 867.75 218.227 867.026 216.101L872.244 212.35C873.241 211.636 873.936 210.577 874.194 209.378C874.451 208.179 874.253 206.927 873.638 205.867L869.694 199.042C869.084 197.979 868.099 197.182 866.932 196.805C865.766 196.429 864.501 196.501 863.384 197.006L857.543 199.645C856.062 197.947 854.467 196.352 852.769 194.871L855.408 189.025C855.912 187.908 855.983 186.644 855.607 185.477C855.231 184.311 854.434 183.326 853.372 182.715L846.547 178.776C845.487 178.16 844.235 177.961 843.036 178.219C841.837 178.476 840.777 179.172 840.064 180.17L836.313 185.388C834.188 184.662 832.015 184.084 829.809 183.658L829.167 177.254C829.048 176.032 828.477 174.899 827.567 174.076C826.657 173.252 825.472 172.798 824.245 172.801H816.363C815.136 172.797 813.953 173.25 813.043 174.073C812.134 174.896 811.564 176.028 811.446 177.249L810.803 183.653C808.584 184.083 806.405 184.667 804.3 185.383L800.549 180.17C799.836 179.172 798.776 178.476 797.577 178.219C796.378 177.961 795.126 178.16 794.065 178.776L787.246 182.715C786.182 183.325 785.383 184.311 785.007 185.479C784.63 186.647 784.703 187.913 785.21 189.03L787.849 194.871C786.148 196.349 784.553 197.945 783.075 199.645L777.229 197.001C776.111 196.496 774.846 196.425 773.679 196.802C772.512 197.18 771.528 197.978 770.918 199.042L766.98 205.862C766.363 206.922 766.164 208.174 766.422 209.373C766.68 210.572 767.376 211.632 768.373 212.345L773.592 216.096C772.866 218.221 772.288 220.395 771.862 222.6L765.457 223.242C764.236 223.361 763.103 223.932 762.279 224.842C761.456 225.752 761.002 226.937 761.005 228.164V236.046C761.005 238.596 762.917 240.711 765.453 240.963L771.857 241.606C772.287 243.825 772.87 246.004 773.587 248.109L768.368 251.86C767.372 252.574 766.677 253.634 766.419 254.833C766.161 256.031 766.359 257.283 766.975 258.344L770.913 265.168C771.522 266.233 772.507 267.032 773.674 267.408C774.842 267.785 776.107 267.712 777.224 267.204L783.065 264.565C784.543 266.26 786.144 267.861 787.839 269.339L785.2 275.185C784.695 276.302 784.624 277.567 785.001 278.733C785.377 279.9 786.174 280.884 787.236 281.496L794.06 285.434C795.12 286.053 796.373 286.253 797.573 285.995C798.772 285.737 799.832 285.04 800.544 284.041L804.295 278.822C806.4 279.544 808.579 280.122 810.798 280.552L811.441 286.957C811.563 288.177 812.136 289.309 813.046 290.131C813.957 290.953 815.141 291.407 816.368 291.404H824.25C825.476 291.409 826.66 290.955 827.57 290.132C828.479 289.31 829.049 288.177 829.167 286.957L829.809 280.552C832.028 280.122 834.208 279.539 836.313 278.822L840.064 284.041C840.778 285.038 841.837 285.732 843.036 285.99C844.235 286.248 845.487 286.05 846.547 285.434L853.372 281.496C854.435 280.885 855.232 279.9 855.609 278.734C855.985 277.567 855.913 276.302 855.408 275.185L852.769 269.344C854.464 267.866 856.065 266.265 857.543 264.57L863.389 267.209C864.505 267.716 865.771 267.788 866.938 267.412C868.105 267.035 869.09 266.237 869.699 265.173L873.638 258.349C874.253 257.288 874.451 256.036 874.194 254.838C873.936 253.639 873.241 252.579 872.244 251.865L867.026 248.114C867.747 246.009 868.326 243.83 868.756 241.611L875.16 240.968C876.381 240.846 877.512 240.273 878.334 239.363C879.156 238.452 879.61 237.268 879.608 236.041V228.159C879.611 226.934 879.157 225.751 878.334 224.843C877.512 223.934 876.38 223.365 875.16 223.247ZM820.306 197.51C837.696 197.51 852.092 210.423 854.503 227.161H831.613C830.652 224.961 829.07 223.089 827.063 221.772C825.055 220.456 822.707 219.753 820.306 219.748C819.847 219.748 819.407 219.837 818.957 219.887L807.482 200.001C811.559 198.359 815.912 197.513 820.306 197.51ZM785.714 232.103C785.717 226.873 786.908 221.712 789.197 217.01C791.487 212.307 794.814 208.186 798.928 204.957L810.388 224.804C808.876 226.859 807.952 229.365 807.952 232.103C807.952 234.84 808.876 237.346 810.388 239.397L798.928 259.243C794.814 256.015 791.487 251.895 789.197 247.194C786.908 242.492 785.717 237.332 785.714 232.103ZM820.306 266.695C815.911 266.693 811.558 265.846 807.482 264.2L818.962 244.319C819.407 244.368 819.847 244.457 820.306 244.457C822.707 244.453 825.055 243.749 827.063 242.433C829.07 241.117 830.652 239.244 831.613 237.044H854.503C852.092 253.782 837.696 266.695 820.306 266.695Z" fill="#1B9468" fill-opacity="0.95"/>
</g>
<g opacity="0.08" clip-path="url(#clip2_190_6076)">
<path d="M776.325 161.837L771.532 161.356C771.211 159.706 770.779 158.08 770.237 156.488L774.143 153.681C774.889 153.147 775.409 152.354 775.602 151.456C775.794 150.559 775.646 149.622 775.186 148.829L772.234 143.721C771.777 142.925 771.04 142.329 770.167 142.047C769.294 141.765 768.347 141.819 767.511 142.197L763.139 144.172C762.031 142.901 760.838 141.708 759.567 140.599L761.542 136.224C761.919 135.388 761.972 134.441 761.691 133.569C761.409 132.696 760.813 131.959 760.018 131.501L754.91 128.553C754.117 128.092 753.18 127.943 752.282 128.136C751.385 128.329 750.592 128.85 750.058 129.596L747.25 133.502C745.66 132.958 744.034 132.526 742.383 132.207L741.902 127.414C741.813 126.5 741.386 125.652 740.705 125.035C740.024 124.419 739.137 124.079 738.219 124.082H732.319C731.401 124.078 730.515 124.418 729.835 125.033C729.154 125.649 728.728 126.497 728.639 127.41L728.158 132.204C726.498 132.525 724.867 132.962 723.291 133.498L720.484 129.596C719.95 128.85 719.157 128.329 718.259 128.136C717.362 127.943 716.425 128.092 715.631 128.553L710.527 131.501C709.731 131.958 709.133 132.696 708.852 133.57C708.57 134.444 708.624 135.391 709.004 136.228L710.979 140.599C709.706 141.706 708.512 142.899 707.406 144.172L703.03 142.193C702.194 141.815 701.247 141.762 700.374 142.045C699.5 142.327 698.764 142.925 698.307 143.721L695.36 148.825C694.898 149.619 694.75 150.556 694.942 151.453C695.135 152.35 695.656 153.144 696.403 153.678L700.308 156.485C699.765 158.075 699.332 159.702 699.014 161.352L694.22 161.833C693.306 161.922 692.458 162.349 691.842 163.03C691.226 163.712 690.885 164.598 690.888 165.517V171.416C690.888 173.324 692.319 174.907 694.217 175.096L699.01 175.577C699.332 177.237 699.768 178.868 700.305 180.444L696.399 183.251C695.653 183.786 695.133 184.579 694.94 185.476C694.747 186.373 694.895 187.31 695.356 188.104L698.304 193.211C698.759 194.008 699.496 194.606 700.37 194.888C701.244 195.17 702.191 195.115 703.027 194.735L707.398 192.76C708.504 194.029 709.703 195.227 710.971 196.333L708.996 200.708C708.619 201.544 708.565 202.491 708.847 203.364C709.129 204.237 709.725 204.974 710.52 205.432L715.628 208.379C716.421 208.842 717.358 208.992 718.256 208.799C719.154 208.606 719.947 208.084 720.48 207.336L723.287 203.431C724.863 203.971 726.494 204.403 728.155 204.725L728.636 209.518C728.727 210.432 729.156 211.279 729.837 211.894C730.519 212.509 731.405 212.849 732.323 212.847H738.222C739.14 212.851 740.026 212.511 740.707 211.895C741.388 211.28 741.814 210.432 741.902 209.518L742.383 204.725C744.044 204.403 745.675 203.967 747.25 203.431L750.058 207.336C750.592 208.082 751.385 208.602 752.282 208.795C753.18 208.988 754.116 208.84 754.91 208.379L760.018 205.432C760.813 204.975 761.41 204.238 761.692 203.364C761.974 202.491 761.92 201.544 761.542 200.708L759.567 196.337C760.835 195.231 762.034 194.033 763.139 192.764L767.515 194.739C768.351 195.118 769.298 195.172 770.171 194.891C771.045 194.609 771.782 194.011 772.238 193.215L775.186 188.107C775.646 187.314 775.794 186.377 775.602 185.48C775.409 184.583 774.889 183.789 774.143 183.255L770.237 180.448C770.777 178.872 771.21 177.241 771.532 175.58L776.325 175.1C777.238 175.008 778.085 174.579 778.7 173.898C779.316 173.216 779.655 172.33 779.654 171.412V165.513C779.656 164.596 779.316 163.711 778.701 163.031C778.085 162.351 777.238 161.925 776.325 161.837ZM735.271 142.574C748.286 142.574 759.06 152.239 760.865 164.766H743.733C743.013 163.119 741.83 161.718 740.327 160.733C738.825 159.748 737.068 159.221 735.271 159.218C734.927 159.218 734.598 159.285 734.261 159.322L725.673 144.438C728.724 143.209 731.982 142.577 735.271 142.574ZM709.381 168.464C709.383 164.55 710.275 160.688 711.988 157.168C713.701 153.649 716.191 150.565 719.271 148.148L727.848 163.002C726.716 164.54 726.024 166.415 726.024 168.464C726.024 170.513 726.716 172.389 727.848 173.923L719.271 188.777C716.192 186.361 713.701 183.278 711.988 179.759C710.275 176.24 709.383 172.378 709.381 168.464ZM735.271 194.354C731.981 194.353 728.723 193.719 725.673 192.487L734.265 177.607C734.598 177.644 734.927 177.711 735.271 177.711C737.068 177.708 738.825 177.181 740.327 176.196C741.83 175.211 743.013 173.809 743.733 172.163H760.865C759.06 184.69 748.286 194.354 735.271 194.354Z" fill="#1B9468" fill-opacity="0.95"/>
</g>
<path d="M614.56 370.24C613.656 374.435 611.641 378.309 608.726 381.458C605.811 384.606 602.104 386.912 597.991 388.134C593.879 389.356 589.514 389.45 585.353 388.404C581.193 387.359 577.39 385.214 574.343 382.193L510.809 319.304C507.539 316.068 505.271 311.958 504.277 307.466C503.283 302.974 503.605 298.29 505.204 293.976C506.803 289.662 509.612 285.901 513.294 283.143C516.975 280.386 521.374 278.748 525.962 278.428L521.831 282.597C517.933 286.541 515.759 291.87 515.785 297.415C515.81 302.96 518.034 308.268 521.967 312.176L582.88 372.461C586.822 376.359 592.149 378.534 597.692 378.509C603.236 378.483 608.542 376.259 612.448 372.324L614.56 370.24Z" fill="#19A538"/>
<path d="M614.56 370.239L612.476 372.352C608.57 376.286 603.263 378.51 597.72 378.536C592.176 378.562 586.849 376.387 582.907 372.488L522.003 312.175C518.07 308.268 515.847 302.96 515.821 297.414C515.795 291.869 517.97 286.54 521.867 282.597L525.999 278.428C526.563 278.382 527.118 278.364 527.682 278.364C530.333 278.364 532.966 278.804 535.473 279.666L535.264 279.884C531.369 283.827 529.197 289.154 529.222 294.697C529.248 300.24 531.469 305.546 535.4 309.453L585.346 358.942C589.195 362.74 594.365 364.902 599.771 364.973C605.178 365.045 610.403 363.02 614.351 359.324C615.261 362.898 615.333 366.634 614.56 370.239Z" fill="#15B538"/>
<g filter="url(#filter2_f_190_6076)">
<path d="M531.672 278.883C533.613 279.071 539.279 281.325 539.279 281.325C539.279 281.325 553.711 294.974 560.035 300.86" stroke="black" stroke-opacity="0.2" stroke-width="3.2541"/>
</g>
<path d="M614.351 359.324C610.403 363.02 605.178 365.044 599.771 364.973C594.365 364.902 589.195 362.74 585.346 358.942L535.382 309.453C531.451 305.546 529.23 300.24 529.204 294.697C529.178 289.154 531.351 283.827 535.245 279.884L535.455 279.666C538.855 280.83 541.946 282.754 544.492 285.292L607.962 348.181C611.07 351.241 613.28 355.095 614.351 359.324Z" fill="#39CE5A"/>
<defs>
<filter id="filter0_f_190_6076" x="342.199" y="115.802" width="200.197" height="200.255" filterUnits="userSpaceOnUse" color-interpolation-filters="sRGB">
<feFlood flood-opacity="0" result="BackgroundImageFix"/>
<feBlend mode="normal" in="SourceGraphic" in2="BackgroundImageFix" result="shape"/>
<feGaussianBlur stdDeviation="4.13991" result="effect1_foregroundBlur_190_6076"/>
</filter>
<filter id="filter1_f_190_6076" x="356.389" y="124.546" width="177.265" height="182.767" filterUnits="userSpaceOnUse" color-interpolation-filters="sRGB">
<feFlood flood-opacity="0" result="BackgroundImageFix"/>
<feBlend mode="normal" in="SourceGraphic" in2="BackgroundImageFix" result="shape"/>
<feGaussianBlur stdDeviation="2.49886" result="effect1_foregroundBlur_190_6076"/>
</filter>
<filter id="filter2_f_190_6076" x="528.261" y="274.009" width="36.1369" height="31.2958" filterUnits="userSpaceOnUse" color-interpolation-filters="sRGB">
<feFlood flood-opacity="0" result="BackgroundImageFix"/>
<feBlend mode="normal" in="SourceGraphic" in2="BackgroundImageFix" result="shape"/>
<feGaussianBlur stdDeviation="1.62705" result="effect1_foregroundBlur_190_6076"/>
</filter>
<clipPath id="clip0_190_6076">
<rect width="256.6" height="256.6" fill="white" transform="translate(84.4468 60.166)"/>
</clipPath>
<clipPath id="clip1_190_6076">
<rect width="118.603" height="118.603" fill="white" transform="translate(761.005 172.801)"/>
</clipPath>
<clipPath id="clip2_190_6076">
<rect width="88.7656" height="88.7656" fill="white" transform="translate(690.888 124.082)"/>
</clipPath>
</defs>
</svg>
