<svg width="180" height="60" viewBox="0 0 180 60" fill="none" xmlns="http://www.w3.org/2000/svg">
<path d="M8.20145 7.41342V16.7659H24.4605V23.2887H8.20145V36.0945H0V0.890625H26.6187V7.41342H8.20145Z" fill="#1B9468" fill-opacity="0.95"/>
<path d="M67.8658 36.0945H59.5205L55.9713 27.5573L52.1824 26.694V23.7684L54.0529 22.953L48.2495 8.99616V8.9482L48.2015 8.99616L42.3982 22.953L44.2687 23.7684V26.694L40.4797 27.5573L36.9305 36.0945H28.5852L44.2207 0.890625H52.2303L67.8658 36.0945Z" fill="#1B9468" fill-opacity="0.95"/>
<path d="M97.6025 24.7756H97.6504C99.9526 23.7684 101.679 22.3295 102.926 20.459C104.173 18.5405 104.797 16.2863 104.797 13.6484C104.797 11.0105 104.173 8.75635 102.926 6.83789C101.679 4.91942 99.9046 3.48056 97.6504 2.42541C95.3483 1.41821 92.6624 0.890625 89.4969 0.890625H74.2451V36.0945H82.4466V26.2144H89.4969C89.5929 26.2144 89.7367 26.2144 89.8327 26.2144L96.6912 36.0945H105.42L97.6025 24.7756ZM89.0653 19.7396H82.4945V7.50935H89.0653C91.5593 7.50935 93.4298 8.03692 94.7248 9.09208C96.0197 10.1472 96.6432 11.634 96.6432 13.6005C96.6432 15.5669 96.0197 17.0537 94.7248 18.1089C93.4298 19.212 91.5593 19.7396 89.0653 19.7396Z" fill="#1B9468" fill-opacity="0.95"/>
<path d="M140.288 25.7828C140.288 27.7493 139.76 29.5718 138.657 31.2025C137.554 32.8332 135.923 34.1761 133.717 35.1833C131.511 36.1905 128.729 36.6701 125.42 36.6701C122.59 36.6701 119.904 36.2864 117.314 35.519C114.724 34.7517 112.614 33.7924 111.031 32.5934L113.813 26.4543C115.3 27.5094 117.074 28.4207 119.137 29.0922C121.199 29.7636 123.309 30.1473 125.42 30.1473C127.05 30.1473 128.345 29.9555 129.305 29.6198C130.312 29.284 131.031 28.8524 131.511 28.2768C131.991 27.7492 132.23 27.0778 132.23 26.3584C132.23 25.4471 131.847 24.6797 131.127 24.1042C130.408 23.5286 129.401 23.097 128.202 22.7612C127.003 22.4255 125.66 22.0898 124.221 21.754C122.782 21.4183 121.343 21.0346 119.856 20.603C118.417 20.1713 117.074 19.5478 115.827 18.7804C114.58 18.013 113.621 17.0538 112.902 15.8068C112.182 14.5598 111.799 13.025 111.799 11.2025C111.799 9.18807 112.326 7.36553 113.429 5.68687C114.484 4.00821 116.115 2.71325 118.321 1.70605C120.528 0.698858 123.261 0.219238 126.619 0.219238C128.825 0.219238 131.031 0.507014 133.19 1.03459C135.348 1.56217 137.218 2.32955 138.849 3.33675L136.259 9.47585C134.676 8.56458 133.046 7.89311 131.367 7.46146C129.688 7.0298 128.058 6.79 126.523 6.79C124.892 6.79 123.597 6.98185 122.638 7.31758C121.679 7.65331 120.959 8.13293 120.48 8.75643C120.048 9.37993 119.808 10.0514 119.808 10.7708C119.808 11.73 120.192 12.4495 120.911 13.025C121.631 13.6006 122.638 14.0322 123.837 14.3679C125.036 14.7037 126.379 14.9914 127.866 15.3272C129.353 15.6629 130.791 16.0466 132.23 16.5262C133.669 17.0058 135.012 17.5814 136.211 18.3008C137.41 19.0202 138.417 19.9795 139.137 21.2265C139.904 22.4735 140.288 24.0082 140.288 25.7828Z" fill="#1B9468" fill-opacity="0.95"/>
<path d="M179.952 0V20.5551C179.952 25.735 178.561 29.7638 175.731 32.5456C172.902 35.3274 169.017 36.7182 164.077 36.7182C159.089 36.7182 155.156 35.3274 152.374 32.5456C149.544 29.7638 148.153 25.783 148.153 20.5551V0H156.355V20.3633C156.355 23.6727 157.026 26.1187 158.417 27.6055C159.808 29.0923 161.679 29.8597 164.173 29.8597C166.667 29.8597 168.585 29.0923 169.976 27.6055C171.367 26.1187 172.038 23.7206 172.038 20.3633V0H179.952Z" fill="#1B9468" fill-opacity="0.95"/>
<path d="M44.5089 23.5288C44.9406 23.6727 45.3722 23.9125 45.8039 24.1044L46.1876 24.2482H46.2355C46.2355 24.2962 46.1876 24.2962 46.1876 24.2962C45.9957 24.6319 45.8039 24.9197 45.7079 25.3034C45.612 25.5912 45.5161 25.831 45.4202 26.1187C45.3722 26.2147 45.3722 26.3586 45.3242 26.4545L45.5641 26.5024C45.5641 26.5504 45.5161 26.5984 45.5161 26.6463C45.4202 26.7902 45.3242 26.982 45.1804 27.078C45.0844 27.1739 45.0844 27.1739 44.9885 27.1259C44.8446 27.078 44.6528 26.9821 44.5089 26.9341C44.5089 26.9341 44.5089 26.9341 44.4609 26.9341L44.5089 23.5288Z" fill="#1B9468" fill-opacity="0.95"/>
<path d="M47.3383 27.3657C47.3862 27.3177 47.3862 27.2218 47.3862 27.1739C47.3862 27.1259 47.3383 27.03 47.2903 26.982C47.2423 26.934 47.1944 26.934 47.1464 26.8861C47.0985 26.8861 47.0505 26.8861 47.0025 26.934C46.9546 26.8381 46.9066 26.6942 46.7627 26.6942C46.7148 26.6942 46.6668 26.6942 46.5709 26.6942C46.5229 26.6942 46.475 26.7422 46.427 26.7901C46.379 26.7422 46.3311 26.6942 46.2831 26.6463C46.1872 26.5983 46.1392 26.5503 46.0433 26.5503C46.0433 26.5503 45.9953 26.5503 45.9953 26.5983C45.9953 26.6463 45.9474 26.6463 45.8994 26.6463V26.5983C45.8994 26.4544 45.9474 26.2626 45.9953 26.1187C46.0433 25.783 46.1392 25.4472 46.2831 25.1115C46.3311 25.0156 46.3311 24.9197 46.379 24.8237L46.9066 24.8717C46.8586 24.9196 46.8107 24.9676 46.7627 25.0156C46.7148 25.0635 46.6668 25.1115 46.6188 25.1115C46.5709 25.1595 46.5229 25.1595 46.5229 25.2074C46.5229 25.2554 46.5229 25.3033 46.5229 25.3513C46.5709 25.3993 46.5709 25.4472 46.6188 25.4472C46.6668 25.4472 46.7148 25.4472 46.7627 25.4472C46.9546 25.3993 47.1464 25.3033 47.2903 25.2074C47.3862 25.1595 47.4821 25.1115 47.5781 25.0635C47.626 25.0156 47.722 25.0156 47.7699 25.0156C47.8179 25.0156 47.9138 25.0156 47.9618 25.0635C48.0577 25.1115 48.1056 25.1595 48.2016 25.2074C48.2975 25.2554 48.3934 25.3513 48.4893 25.3993C48.8251 25.6391 49.2088 25.8309 49.5445 26.0707C49.6404 26.1666 49.7363 26.2146 49.8323 26.3585C49.8802 26.4065 49.9282 26.4544 49.9282 26.5024C49.9282 26.5504 49.9762 26.6463 49.9762 26.6942C49.9762 26.7422 49.9762 26.7902 49.9282 26.8381C49.9282 26.8861 49.8802 26.934 49.8323 26.934C49.7843 26.934 49.7843 26.934 49.7363 26.934C49.5445 26.8861 49.4006 26.8381 49.3047 26.6942C49.1608 26.5503 48.969 26.4544 48.7771 26.3105L48.7292 26.3585C48.7771 26.3585 48.7771 26.4065 48.8251 26.4065C48.921 26.4544 49.0169 26.5024 49.0649 26.5503C49.1128 26.5983 49.2088 26.6463 49.2567 26.7422C49.2567 26.7902 49.3047 26.7902 49.3047 26.8381C49.3527 26.8861 49.3527 26.982 49.3527 27.03C49.3527 27.0779 49.3527 27.1739 49.3047 27.2218C49.2567 27.2698 49.2088 27.3177 49.1608 27.3177C49.1128 27.3177 49.0649 27.3177 49.0169 27.3177C48.921 27.3177 48.7771 27.2218 48.7292 27.1739C48.6332 27.0779 48.5373 26.982 48.4414 26.8861C48.3934 26.8381 48.3455 26.8381 48.2975 26.7901L48.2495 26.8381C48.3934 26.982 48.5373 27.1259 48.6812 27.2218C48.7291 27.2698 48.7771 27.3177 48.873 27.3657C48.873 27.3657 48.873 27.3657 48.921 27.3657C48.921 27.3657 48.921 27.3657 48.921 27.4137C48.921 27.4616 48.921 27.4137 48.921 27.4616C48.921 27.4616 48.921 27.4616 48.921 27.5096C48.921 27.5575 48.873 27.6055 48.873 27.6055C48.8251 27.6535 48.8251 27.6535 48.7771 27.6535C48.7292 27.6535 48.6812 27.7014 48.6812 27.7014C48.6332 27.7014 48.5853 27.7014 48.5853 27.6535C48.4893 27.6055 48.3934 27.5575 48.2975 27.4616C48.2016 27.4137 48.1536 27.3177 48.0577 27.2698C48.0097 27.2218 47.9138 27.2218 47.8658 27.2218V27.2698C47.9618 27.2698 48.0577 27.3177 48.1056 27.3657C48.2016 27.4137 48.2495 27.5096 48.3455 27.5575C48.3934 27.6055 48.3455 27.7014 48.2975 27.7014C48.2495 27.7494 48.2016 27.7494 48.1536 27.7494C48.1057 27.7494 48.0577 27.7494 48.0097 27.7014C47.9618 27.7014 47.9618 27.6535 47.9138 27.6535H47.8658C47.8179 27.6535 47.8179 27.6535 47.7699 27.6055C47.722 27.5096 47.626 27.4137 47.5781 27.3177L47.5301 27.2698C47.4342 27.3657 47.3862 27.3657 47.3383 27.3657Z" fill="#1B9468" fill-opacity="0.95"/>
<path d="M51.8946 23.5288C51.4629 23.6727 51.0313 23.9125 50.5996 24.1044L50.2159 24.2482H50.168L50.2159 24.2962C50.4078 24.6319 50.5996 24.9197 50.6956 25.3034C50.7915 25.5912 50.8874 25.831 50.9833 26.1187C51.0313 26.2147 51.0313 26.3586 51.0792 26.4545L50.8394 26.5024C50.8394 26.5504 50.8874 26.5984 50.8874 26.6463C50.9833 26.7902 51.0792 26.982 51.2231 27.078C51.319 27.1739 51.319 27.1739 51.367 27.1259C51.5109 27.078 51.7027 26.9821 51.8466 26.9341C51.8466 26.9341 51.8466 26.9341 51.8946 26.9341V23.5288Z" fill="#1B9468" fill-opacity="0.95"/>
<path d="M49.9873 24.4478C49.9873 24.4958 49.9873 24.4958 49.9873 24.5437C50.0353 24.6876 50.0832 24.7835 50.1312 24.9274C50.2271 25.3111 50.323 25.6469 50.419 26.0306V26.0785C50.323 26.1744 50.2271 26.2704 50.0832 26.3663C50.0353 26.3663 50.0353 26.3663 50.0353 26.3663C49.9393 26.2704 49.8434 26.1744 49.7955 26.0785C49.7475 26.0305 49.6995 25.9826 49.6516 25.9826C49.3638 25.7907 49.0281 25.5509 48.7403 25.3591C48.5964 25.2632 48.5005 25.1672 48.3566 25.1193C48.3087 25.0713 48.2607 25.0713 48.2127 25.0234C48.1168 24.9754 48.0688 24.9274 47.9729 24.9274C47.877 24.9274 47.7811 24.9274 47.7331 24.9754C47.5892 25.0234 47.4453 25.1193 47.3015 25.1672C47.1576 25.2632 46.9657 25.3591 46.8218 25.4071C46.7739 25.4071 46.7739 25.4071 46.7259 25.4071C46.678 25.4071 46.678 25.407 46.63 25.3591C46.582 25.3111 46.582 25.3111 46.582 25.3111C46.582 25.3111 46.582 25.2632 46.582 25.2152C46.582 25.1672 46.6028 25.2152 46.6508 25.1672C46.6987 25.1193 46.7467 25.0713 46.7946 25.0713C46.8906 25.0234 46.9178 24.8795 46.9657 24.8315C47.0137 24.7836 47.0616 24.6876 47.0616 24.6397C47.1096 24.5437 47.2055 24.4958 47.2535 24.4958C47.4453 24.4478 47.6372 24.3519 47.829 24.256C47.9729 24.208 48.1168 24.208 48.2607 24.208C48.5005 24.256 48.7403 24.3039 49.0281 24.3519C49.172 24.3999 49.2679 24.3999 49.4118 24.4478C49.6036 24.5437 49.7955 24.5437 49.9873 24.4478Z" fill="#1B9468" fill-opacity="0.95"/>
<path d="M46.9267 27.1534C47.0226 27.1055 47.1185 27.0575 47.2144 27.1534C47.2624 27.2014 47.2624 27.2014 47.2624 27.2494C47.2624 27.2973 47.2624 27.2973 47.2624 27.3453C47.2624 27.3933 47.2624 27.4412 47.2144 27.4412C47.2144 27.4892 47.1665 27.4892 47.1665 27.5371H47.2624C47.3583 27.5371 47.4063 27.5371 47.5022 27.5851C47.5022 27.5851 47.5502 27.5851 47.5502 27.6331C47.5981 27.729 47.6461 27.7769 47.742 27.8729C47.6941 27.9208 47.6461 27.9208 47.5981 27.9208C47.5502 27.9208 47.5022 27.9208 47.4542 27.9208L47.4063 27.8729C47.3583 27.8249 47.3583 27.7769 47.3104 27.729C47.2624 27.681 47.2144 27.681 47.1665 27.681H47.0706C47.0226 27.681 46.9746 27.6331 46.9267 27.5851C46.8787 27.5371 46.8787 27.4892 46.8787 27.4412C46.8787 27.3932 46.8787 27.3933 46.8787 27.3453C46.8307 27.3933 46.8308 27.3933 46.7828 27.3933C46.7828 27.3933 46.7348 27.3932 46.7348 27.4412H46.6869C46.6389 27.3932 46.543 27.3933 46.495 27.3453C46.495 27.3453 46.495 27.3453 46.4471 27.2973V27.2494C46.4471 27.1534 46.4471 27.1055 46.4471 27.0096C46.4471 27.0096 46.4471 27.0096 46.3991 27.0096C46.3511 27.0096 46.3032 27.0575 46.2552 27.0096C46.2072 27.0096 46.1593 26.9616 46.1113 26.9616C46.1113 26.9616 46.1113 26.9616 46.1113 26.9136C46.1113 26.8177 46.1113 26.7698 46.1113 26.6738C46.1593 26.7218 46.2552 26.7697 46.3032 26.7697C46.3511 26.8177 46.4471 26.8657 46.495 26.9136C46.495 26.8657 46.543 26.8177 46.5909 26.8177C46.6389 26.8177 46.6869 26.7697 46.7348 26.7697C46.7828 26.7697 46.7828 26.7697 46.8308 26.7697C46.8787 26.7697 46.8787 26.8177 46.8787 26.8177C46.8307 27.0575 46.8787 27.1055 46.9267 27.1534Z" fill="#1B9468" fill-opacity="0.95"/>
<path d="M48.2499 8.99698H48.2012L48.2499 8.94824V8.99698Z" fill="#1B9468" fill-opacity="0.95"/>
<path d="M39.9132 46.6608H35.6348V49.5821H39.1376V50.7325H35.6348V54.817H34.4844V45.5105H39.9132V46.6608Z" fill="#1B9468" fill-opacity="0.95"/>
<path d="M46.4189 54.817H45.3977V53.7571C44.8118 54.5929 43.9242 55.0109 42.735 55.0109C42.0543 55.0109 41.4985 54.817 41.0676 54.4292C40.6454 54.0414 40.4343 53.5287 40.4343 52.8911C40.4343 52.0035 40.8436 51.3529 41.6622 50.9393C41.869 50.8359 42.1275 50.7454 42.4377 50.6678C42.7566 50.5817 43.0194 50.5213 43.2262 50.4869C43.4416 50.4524 43.7949 50.4007 44.2861 50.3318C44.7859 50.2628 45.1091 50.2154 45.2556 50.1896C45.2383 49.7156 45.0746 49.358 44.7644 49.1167C44.4628 48.8668 44.0621 48.7419 43.5623 48.7419C42.735 48.7419 42.0801 49.0263 41.5976 49.595L40.8737 48.8194C41.5631 48.0353 42.4981 47.6432 43.6786 47.6432C44.4197 47.6432 45.0487 47.8716 45.5658 48.3283C46.1345 48.8022 46.4189 49.5433 46.4189 50.5515V54.817ZM44.997 52.9169C45.0832 52.7618 45.1478 52.5851 45.1909 52.3869C45.234 52.1801 45.2556 51.9992 45.2556 51.8441C45.2642 51.689 45.2685 51.452 45.2685 51.1332C44.1224 51.3141 43.3727 51.4477 43.0194 51.5338C42.5972 51.62 42.2525 51.7708 41.9853 51.9862C41.7182 52.2017 41.5846 52.4688 41.5846 52.7876C41.5846 53.1496 41.7139 53.4425 41.9724 53.6666C42.2309 53.8906 42.5584 54.0027 42.9548 54.0027C43.9113 54.0027 44.592 53.6407 44.997 52.9169Z" fill="#1B9468" fill-opacity="0.95"/>
<path d="M51.2975 47.6432C51.6336 47.626 51.9654 47.6777 52.2928 47.7983V48.8841C51.9481 48.7548 51.5862 48.7031 51.207 48.729C50.6555 48.7462 50.2161 48.9185 49.8886 49.246C49.6215 49.4959 49.4491 49.7846 49.3716 50.112C49.3027 50.4309 49.2682 50.8574 49.2682 51.3917V54.817H48.1049V47.8371H49.1389V48.8582C49.294 48.5997 49.5008 48.3714 49.7594 48.1732C50.1902 47.8371 50.7029 47.6604 51.2975 47.6432Z" fill="#1B9468" fill-opacity="0.95"/>
<path d="M58.3857 47.8371H59.4068V54.8687C59.4068 55.5322 59.3249 56.0622 59.1612 56.4586C58.9975 56.8636 58.7131 57.2082 58.3081 57.4926C57.7308 57.9062 57.0155 58.113 56.1624 58.113C55.3611 58.113 54.7018 57.8675 54.1848 57.3763C53.8315 57.1609 53.5687 56.898 53.3963 56.5878L54.4563 56.0708C54.5166 56.1828 54.6157 56.3034 54.7535 56.4327C55.081 56.8119 55.5506 57.0014 56.1624 57.0014C56.8001 57.0014 57.3042 56.8463 57.6748 56.5361C57.9074 56.3465 58.0625 56.1311 58.1401 55.8898C58.2176 55.6485 58.2564 55.3039 58.2564 54.8558V54.1578C57.7135 54.7265 56.9854 55.0109 56.072 55.0109C55.0638 55.0109 54.2581 54.636 53.6549 53.8863C53.1378 53.2314 52.8793 52.374 52.8793 51.3141C52.8793 50.2714 53.1378 49.4183 53.6549 48.7548C54.2408 48.0137 55.0465 47.6432 56.072 47.6432C57.0285 47.6432 57.7997 47.9707 58.3857 48.6256V47.8371ZM57.8428 53.24C58.2047 52.792 58.3857 52.15 58.3857 51.3141C58.3857 50.4955 58.2047 49.8578 57.8428 49.4011C57.4723 48.9272 56.9423 48.6902 56.2529 48.6902C55.5119 48.6902 54.9604 48.9487 54.5984 49.4657C54.271 49.8966 54.1073 50.5127 54.1073 51.3141C54.1073 52.1327 54.2667 52.7532 54.5855 53.1754C54.9474 53.6924 55.4903 53.951 56.2142 53.951C56.9121 53.951 57.455 53.714 57.8428 53.24Z" fill="#1B9468" fill-opacity="0.95"/>
<path d="M62.5478 47.165C62.5478 47.613 62.44 47.9534 62.2246 48.1861C62.0092 48.4101 61.6947 48.4877 61.281 48.4187L61.3586 47.8759C61.8067 47.9103 62.0049 47.6087 61.9532 46.9711H61.281V45.5105H62.5478V47.165Z" fill="#1B9468" fill-opacity="0.95"/>
<path d="M66.9401 55.0109C65.8543 55.0109 65.0012 54.6274 64.3808 53.8605C63.8465 53.1797 63.5794 52.3309 63.5794 51.3141C63.5794 50.2887 63.8465 49.4442 64.3808 48.7807C64.6738 48.4187 65.0443 48.1387 65.4924 47.9405C65.9491 47.7423 66.4317 47.6432 66.9401 47.6432C68.0431 47.6432 68.8962 48.0224 69.4994 48.7807C70.0423 49.4356 70.3137 50.2801 70.3137 51.3141C70.3137 52.3396 70.0423 53.1883 69.4994 53.8605C68.8876 54.6274 68.0345 55.0109 66.9401 55.0109ZM68.5817 53.1625C68.9177 52.723 69.0858 52.1069 69.0858 51.3141C69.0858 50.5127 68.9177 49.9009 68.5817 49.4787C68.2197 48.9789 67.6725 48.729 66.9401 48.729C66.2162 48.729 65.6734 48.9789 65.3114 49.4787C64.9754 49.9009 64.8073 50.5127 64.8073 51.3141C64.8073 52.1069 64.9754 52.723 65.3114 53.1625C65.682 53.6623 66.2249 53.9122 66.9401 53.9122C67.6639 53.9122 68.2111 53.6623 68.5817 53.1625Z" fill="#1B9468" fill-opacity="0.95"/>
<path d="M76.8792 48.2636C77.2928 48.5997 77.5642 49.0306 77.6935 49.5562C77.8227 50.0732 77.8831 50.698 77.8745 51.4304V54.817H76.7111V51.4692C76.7111 50.8919 76.6594 50.4136 76.556 50.0345C76.4612 49.6553 76.2717 49.3537 75.9873 49.1297C75.6512 48.8539 75.2204 48.7247 74.6947 48.7419C74.2466 48.7677 73.8804 48.9056 73.596 49.1555C73.2772 49.4226 73.0747 49.7975 72.9885 50.2801C72.9282 50.5558 72.898 51.047 72.898 51.7536V54.817H71.7477V47.8371H72.7688V48.7548C72.7946 48.7117 72.8894 48.5997 73.0532 48.4187C73.484 47.9534 74.07 47.7035 74.8111 47.6691C75.6555 47.6087 76.3449 47.8069 76.8792 48.2636Z" fill="#1B9468" fill-opacity="0.95"/>
<path d="M85.1476 54.817H84.1265V53.7571C83.5405 54.5929 82.6529 55.0109 81.4638 55.0109C80.783 55.0109 80.2272 54.817 79.7963 54.4292C79.3741 54.0414 79.163 53.5287 79.163 52.8911C79.163 52.0035 79.5723 51.3529 80.3909 50.9393C80.5977 50.8359 80.8563 50.7454 81.1665 50.6678C81.4853 50.5817 81.7481 50.5213 81.9549 50.4869C82.1704 50.4524 82.5237 50.4007 83.0149 50.3318C83.5146 50.2628 83.8378 50.2154 83.9843 50.1896C83.967 49.7156 83.8033 49.358 83.4931 49.1167C83.1915 48.8668 82.7908 48.7419 82.291 48.7419C81.4638 48.7419 80.8089 49.0263 80.3263 49.595L79.6025 48.8194C80.2918 48.0353 81.2268 47.6432 82.4073 47.6432C83.1484 47.6432 83.7775 47.8716 84.2945 48.3283C84.8632 48.8022 85.1476 49.5433 85.1476 50.5515V54.817ZM83.7258 52.9169C83.8119 52.7618 83.8766 52.5851 83.9197 52.3869C83.9627 52.1801 83.9843 51.9992 83.9843 51.8441C83.9929 51.689 83.9972 51.452 83.9972 51.1332C82.8511 51.3141 82.1014 51.4477 81.7481 51.5338C81.3259 51.62 80.9812 51.7708 80.7141 51.9862C80.4469 52.2017 80.3134 52.4688 80.3134 52.7876C80.3134 53.1496 80.4426 53.4425 80.7011 53.6666C80.9597 53.8906 81.2871 54.0027 81.6835 54.0027C82.64 54.0027 83.3208 53.6407 83.7258 52.9169Z" fill="#1B9468" fill-opacity="0.95"/>
<path d="M95.2135 49.6596L94.1148 49.9311C93.9511 49.4743 93.671 49.1383 93.2747 48.9229C92.9817 48.7677 92.6327 48.6816 92.2277 48.6643C91.883 48.6557 91.5555 48.716 91.2453 48.8453C90.8834 49.009 90.7024 49.246 90.7024 49.5562C90.7024 49.8061 90.8015 49.9957 90.9997 50.1249C91.1635 50.237 91.4134 50.3404 91.7494 50.4352C92.0683 50.53 92.5336 50.6592 93.1454 50.8229C93.7055 50.9694 94.1536 51.1805 94.4897 51.4563C94.9895 51.8527 95.2394 52.3439 95.2394 52.9298C95.2394 53.24 95.1575 53.546 94.9938 53.8476C94.8301 54.1405 94.6103 54.3689 94.3346 54.5326C93.852 54.8515 93.2186 55.0109 92.4345 55.0109C91.4004 55.0109 90.599 54.705 90.0303 54.0931C89.9872 54.0414 89.9441 53.9897 89.901 53.938C89.8666 53.8863 89.8321 53.8432 89.7976 53.8088C89.7718 53.7657 89.7416 53.714 89.7072 53.6537C89.6727 53.5933 89.6468 53.5503 89.6296 53.5244C89.6124 53.4899 89.5908 53.4382 89.565 53.3693C89.5391 53.3004 89.5176 53.253 89.5003 53.2271C89.4917 53.2013 89.4745 53.1496 89.4486 53.072C89.4228 52.9858 89.4056 52.9298 89.3969 52.904C89.3969 52.8781 89.3797 52.8178 89.3452 52.723C89.3194 52.6196 89.3021 52.555 89.2935 52.5291L90.3922 52.2577C90.4612 52.7403 90.612 53.1108 90.8446 53.3693C91.2065 53.7743 91.7408 53.9768 92.4474 53.9768C93.0075 53.9768 93.4427 53.8734 93.7529 53.6666C94.0287 53.477 94.1665 53.2271 94.1665 52.9169C94.1665 52.6412 94.0373 52.4214 93.7788 52.2577C93.5633 52.1284 93.2488 52.0035 92.8352 51.8828C92.1889 51.7019 91.6805 51.5554 91.3099 51.4434C90.724 51.2279 90.3104 50.9996 90.0691 50.7583C89.7675 50.4653 89.6167 50.0775 89.6167 49.595C89.6167 49.2245 89.7244 48.8884 89.9398 48.5868C90.1639 48.2852 90.4482 48.0568 90.7929 47.9017C91.2238 47.7121 91.7236 47.626 92.2923 47.6432C92.8266 47.6432 93.3177 47.7552 93.7658 47.9793C94.0933 48.1516 94.3906 48.3929 94.6577 48.7031C94.9248 49.0047 95.1101 49.3235 95.2135 49.6596Z" fill="#1B9468" fill-opacity="0.95"/>
<path d="M102.27 54.817H101.249V53.7571C100.663 54.5929 99.7755 55.0109 98.5863 55.0109C97.9056 55.0109 97.3498 54.817 96.9189 54.4292C96.4967 54.0414 96.2855 53.5287 96.2855 52.8911C96.2855 52.0035 96.6949 51.3529 97.5135 50.9393C97.7203 50.8359 97.9788 50.7454 98.289 50.6678C98.6079 50.5817 98.8707 50.5213 99.0775 50.4869C99.2929 50.4524 99.6462 50.4007 100.137 50.3318C100.637 50.2628 100.96 50.2154 101.107 50.1896C101.09 49.7156 100.926 49.358 100.616 49.1167C100.314 48.8668 99.9134 48.7419 99.4136 48.7419C98.5863 48.7419 97.9314 49.0263 97.4489 49.595L96.725 48.8194C97.4144 48.0353 98.3493 47.6432 99.5299 47.6432C100.271 47.6432 100.9 47.8716 101.417 48.3283C101.986 48.8022 102.27 49.5433 102.27 50.5515V54.817ZM100.848 52.9169C100.935 52.7618 100.999 52.5851 101.042 52.3869C101.085 52.1801 101.107 51.9992 101.107 51.8441C101.115 51.689 101.12 51.452 101.12 51.1332C99.9737 51.3141 99.224 51.4477 98.8707 51.5338C98.4484 51.62 98.1038 51.7708 97.8366 51.9862C97.5695 52.2017 97.4359 52.4688 97.4359 52.7876C97.4359 53.1496 97.5652 53.4425 97.8237 53.6666C98.0822 53.8906 98.4097 54.0027 98.8061 54.0027C99.7626 54.0027 100.443 53.6407 100.848 52.9169Z" fill="#1B9468" fill-opacity="0.95"/>
<path d="M108.39 47.8371H109.566L107.02 54.817H105.856L103.31 47.8371H104.473L106.438 53.3435L108.39 47.8371Z" fill="#1B9468" fill-opacity="0.95"/>
<path d="M115.672 45.5105H116.822V54.817H115.801V54.0027C115.241 54.6748 114.47 55.0109 113.487 55.0109C112.479 55.0109 111.673 54.636 111.07 53.8863C110.553 53.2314 110.295 52.374 110.295 51.3141C110.295 50.2714 110.553 49.4183 111.07 48.7548C111.656 48.0137 112.458 47.6432 113.474 47.6432C114.353 47.6432 115.086 47.9276 115.672 48.4963V45.5105ZM115.245 53.24C115.616 52.8006 115.801 52.1586 115.801 51.3141C115.801 50.4955 115.616 49.8578 115.245 49.4011C114.883 48.9272 114.353 48.6902 113.655 48.6902C112.914 48.6902 112.363 48.9487 112.001 49.4657C111.673 49.9138 111.51 50.53 111.51 51.3141C111.51 52.1155 111.669 52.7359 111.988 53.1754C112.35 53.6924 112.897 53.951 113.629 53.951C114.336 53.951 114.875 53.714 115.245 53.24Z" fill="#1B9468" fill-opacity="0.95"/>
<path d="M121.604 55.0109C120.518 55.0109 119.665 54.6274 119.045 53.8605C118.51 53.1797 118.243 52.3309 118.243 51.3141C118.243 50.2887 118.51 49.4442 119.045 48.7807C119.338 48.4187 119.708 48.1387 120.156 47.9405C120.613 47.7423 121.095 47.6432 121.604 47.6432C122.707 47.6432 123.56 48.0224 124.163 48.7807C124.706 49.4356 124.977 50.2801 124.977 51.3141C124.977 52.3396 124.706 53.1883 124.163 53.8605C123.551 54.6274 122.698 55.0109 121.604 55.0109ZM123.245 53.1625C123.581 52.723 123.749 52.1069 123.749 51.3141C123.749 50.5127 123.581 49.9009 123.245 49.4787C122.883 48.9789 122.336 48.729 121.604 48.729C120.88 48.729 120.337 48.9789 119.975 49.4787C119.639 49.9009 119.471 50.5127 119.471 51.3141C119.471 52.1069 119.639 52.723 119.975 53.1625C120.346 53.6623 120.889 53.9122 121.604 53.9122C122.328 53.9122 122.875 53.6623 123.245 53.1625Z" fill="#1B9468" fill-opacity="0.95"/>
<path d="M134.093 47.8371H135.257V54.817H134.223V53.9122C134.119 54.0501 134.029 54.1578 133.951 54.2353C133.503 54.7007 132.917 54.9506 132.193 54.985C131.349 55.0453 130.659 54.8471 130.125 54.3904C129.711 54.0544 129.436 53.6278 129.298 53.1108C129.169 52.5851 129.108 51.9561 129.117 51.2236V47.8371H130.28V51.1849C130.28 52.3568 130.526 53.1366 131.017 53.5244C131.362 53.8002 131.788 53.9251 132.297 53.8993C132.736 53.882 133.107 53.7442 133.408 53.4856C133.718 53.2271 133.921 52.8566 134.016 52.374C134.067 52.1586 134.093 51.8354 134.093 51.4046V47.8371Z" fill="#1B9468" fill-opacity="0.95"/>
<path d="M142.039 47.8371H143.202L140.061 56.0837C139.777 56.8162 139.449 57.316 139.079 57.5831C138.777 57.8071 138.333 57.9192 137.747 57.9192H137.579V56.8075L137.799 56.8334C138.118 56.8506 138.355 56.8032 138.51 56.6912C138.725 56.5361 139.01 55.9803 139.363 55.0238L136.416 47.8371H137.592L139.906 53.5373L142.039 47.8371Z" fill="#1B9468" fill-opacity="0.95"/>
<path d="M144.365 45.4717H145.516V46.6608H144.365V45.4717ZM144.365 47.8371H145.516V54.817H144.365V47.8371Z" fill="#1B9468" fill-opacity="0.95"/>
</svg>
